<?xml version="1.0" encoding="UTF-8" standalone="no"?>
<svg width="3000px" height="727px" viewBox="0 0 3000 727" version="1.1" xmlns="http://www.w3.org/2000/svg" xmlns:xlink="http://www.w3.org/1999/xlink" xmlns:sketch="http://www.bohemiancoding.com/sketch/ns">
    <!-- Generator: Sketch 3.5.1 (25234) - http://www.bohemiancoding.com/sketch -->
    <title>Artboard 1</title>
    <desc>Created with Sketch.</desc>
    <defs></defs>
    <g id="Page-1" stroke="none" stroke-width="1" fill="none" fill-rule="evenodd" sketch:type="MSPage">
        <g id="Artboard-1" sketch:type="MSArtboardGroup">
            <g id="Group-2" sketch:type="MSLayerGroup" transform="translate(-1.000000, 0.000000)">
                <g id="react-icons" transform="translate(177.527298, 87.706939)" sketch:type="MSShapeGroup">
                    <g id="Group">
                        <g id="Layer_2" stroke="#E91E63" stroke-width="24">
                            <path d="M352.927439,199.338852 C403.256428,249.667841 442.78901,303.644593 465.904544,351.031701 C493.757309,408.128919 497.707291,456.408947 477.637196,476.477985 C456.721733,497.393448 405.498767,493.262769 344.775977,462.762945 C298.867207,439.704473 247.525889,400.2913 199.750969,352.515322 C150.768228,303.532582 109.983445,251.551955 87.0348714,204.770342 C57.9964776,145.570271 55.2733357,95.1440648 75.7883057,74.6290948 C95.6946108,54.721733 142.623107,57.6625572 199.100035,84.9394153 C246.820007,107.988376 302.108137,148.518492 352.927439,199.338852 L352.927439,199.338852 Z" id="Shape"></path>
                            <path d="M248.253963,171.319126 C316.995069,152.863684 383.501233,145.584008 436.102149,149.231772 C499.477281,153.627686 543.273688,174.325467 550.633674,201.737584 C558.304333,230.303628 529.134907,272.614301 472.380063,309.980627 C429.469179,338.229658 369.679465,363.014794 304.425502,380.536104 C237.523072,398.498063 172.117999,407.860514 120.126805,404.368087 C54.3360338,399.949982 9.29482212,377.11659 1.77104614,349.095808 C-5.52765058,321.905601 20.4621346,282.72279 72.3064459,247.425502 C116.11025,217.600916 178.840789,189.955266 248.253963,171.319126 L248.253963,171.319126 Z" id="Shape"></path>
                            <path d="M171.682635,248.01726 C190.023952,179.245509 216.930962,117.989081 246.361395,74.2412821 C281.820359,21.5304685 321.625572,-6.07713984 349.05037,1.23740754 C377.629095,8.85840085 399.718563,55.2595985 403.745685,123.091934 C406.79218,174.377246 398.404015,238.554421 380.99366,303.837971 C363.143713,370.771046 338.59211,432.110955 309.600211,475.410708 C272.915463,530.203241 230.639662,557.821416 202.606199,550.345192 C175.403311,543.090877 154.437126,501.005284 149.748503,438.459669 C145.786897,385.614653 153.16379,317.461078 171.682635,248.01726 L171.682635,248.01726 Z" id="Shape"></path>
                        </g>
                        <g id="Layer_3" transform="translate(220.852413, 232.476224)" fill="#E91E63">
                            <path d="M56.0056358,95.4938359 C54.9288482,95.4938359 54.0179641,95.1208172 53.2729834,94.3758366 L14.5139133,56.9830926 C14.099683,56.6523424 13.5301162,56.1144769 12.8052131,55.3684396 C12.08031,54.623459 10.9316661,53.2676999 9.35822473,51.299049 C7.78478337,49.3335682 6.3761888,47.3141951 5.13455442,45.2441 C3.89292004,43.1740049 2.78443114,40.6685453 1.81120113,37.7287777 C0.839027827,34.7890102 0.351884466,31.9316661 0.351884466,29.157802 C0.351884466,20.0479042 2.98097922,12.9256781 8.24022543,7.79006692 C13.4994716,2.6555125 20.7664671,0.0877069391 30.0412117,0.0877069391 C32.6090173,0.0877069391 35.2286016,0.532581895 37.8989081,1.42338852 C40.5692145,2.31419514 43.0545967,3.51461782 45.3529412,5.02676999 C47.650229,6.53786545 49.6283903,7.95597041 51.284255,9.28108489 C52.9401198,10.6061994 54.5146178,12.0137372 56.0045791,13.5047552 C57.495597,12.0137372 59.0679817,10.6061994 60.7249031,9.28108489 C62.3818246,7.95597041 64.3578725,6.53786545 66.6572737,5.02676999 C68.9556182,3.51461782 71.4388869,2.31419514 74.1113068,1.42338852 C76.7816132,0.533638605 79.4011976,0.0877069391 81.9679465,0.0877069391 C91.2437478,0.0877069391 98.5107432,2.6555125 103.769989,7.79006692 C109.030292,12.9246213 111.659387,20.0479042 111.659387,29.157802 C111.659387,38.3089116 106.917929,47.6259246 97.4350123,57.1088411 L58.7393448,94.3768933 C57.9933075,95.1218739 57.0824234,95.4938359 56.0056358,95.4938359 L56.0056358,95.4938359 Z" id="Shape"></path>
                        </g>
                    </g>
                </g>
                <text id="REACT-WEEKLY" sketch:type="MSTextLayer" font-family="Open Sans" font-size="304.332511" font-weight="260" sketch:alignment="middle" fill="#000000">
                    <tspan x="815.598582" y="488.790067">REACT WEEKLY</tspan>
                </text>
                <rect id="Rectangle-1" stroke="#000000" stroke-width="24" sketch:type="MSShapeGroup" x="0" y="0" width="3000" height="727.016555"></rect>
            </g>
        </g>
    </g>
</svg>